<svg id="Layer_1" data-name="Layer 1" xmlns="http://www.w3.org/2000/svg" viewBox="0 0 514.5 125.95"><defs><style>.cls-1{fill:#1d1d1b;stroke:#293377;stroke-miterlimit:10;stroke-width:10px;}.cls-2{fill:#293377;}</style></defs><line class="cls-1" x1="53.51" y1="5" x2="514.5" y2="5"/><line class="cls-1" y1="120.95" x2="423.51" y2="120.95"/><path class="cls-2" d="M43.14,162.16H52v60.65h29.1v7.42H43.14Z" transform="translate(-35.49 -132.05)"/><path class="cls-2" d="M126,198.32H99.65v24.59h29.52v7.32H90.81V162.16h36.8v7.32h-28V191H126Z" transform="translate(-35.49 -132.05)"/><path class="cls-2" d="M155.11,169.59H134.37v-7.43h50.41v7.43H164v60.64h-8.84Z" transform="translate(-35.49 -132.05)"/><path class="cls-2" d="M222.56,162.16v68.07h-8.84V162.16Z" transform="translate(-35.49 -132.05)"/><path class="cls-2" d="M250.86,169.59H230.12v-7.43h50.41v7.43H259.69v60.64h-8.83Z" transform="translate(-35.49 -132.05)"/><path class="cls-2" d="M357.05,228.05c-3.17,1.6-9.69,3.24-18,3.24-19.17,0-33.56-12.13-33.56-34.48,0-21.36,14.41-35.71,35.54-35.71,8.41,0,13.84,1.78,16.15,3L355,171.25a32.46,32.46,0,0,0-13.7-2.8c-16,0-26.55,10.21-26.55,28.09,0,16.65,9.6,27.29,26.09,27.29A35.84,35.84,0,0,0,355.29,221Z" transform="translate(-35.49 -132.05)"/><path class="cls-2" d="M424.15,195.52c0,23.35-14.24,35.82-31.59,35.82-18.05,0-30.6-14-30.6-34.54,0-21.57,13.35-35.75,31.53-35.75C412.08,161.05,424.15,175.29,424.15,195.52Zm-52.89,1.07c0,14.57,7.91,27.6,21.78,27.6s21.81-12.82,21.81-28.29c0-13.55-7.07-27.7-21.7-27.7S371.26,181.7,371.26,196.59Z" transform="translate(-35.49 -132.05)"/><path class="cls-2" d="M435.52,163.1a116.28,116.28,0,0,1,18.71-1.47c12.59,0,21.62,3,27.57,8.55s9.64,13.4,9.64,24.36c0,11.16-3.48,20.19-9.79,26.48s-17,9.81-30.14,9.81a140,140,0,0,1-16-.76Zm8.83,60.21a61.22,61.22,0,0,0,8.84.42c18.84,0,29-10.45,29-28.86.11-16.08-9-26.22-27.53-26.22a52.9,52.9,0,0,0-10.3.89Z" transform="translate(-35.49 -132.05)"/><path class="cls-2" d="M538,198.32H511.62v24.59h29.52v7.32H502.78V162.16h36.8v7.32h-28V191H538Z" transform="translate(-35.49 -132.05)"/></svg>